<mxfile host="app.diagrams.net" modified="2023-06-09T20:57:46.712Z" agent="Mozilla/5.0 (Windows NT 10.0; Win64; x64; rv:109.0) Gecko/20100101 Firefox/112.0" etag="NmuulLzYaMlgyEkUTeJm" version="21.3.7" type="device" pages="5">
  <diagram name="UI TaxSolver" id="KpJaUoztcYsE1v-48ktz">
    <mxGraphModel dx="1644" dy="1522" grid="1" gridSize="10" guides="1" tooltips="1" connect="1" arrows="1" fold="1" page="1" pageScale="1" pageWidth="850" pageHeight="1100" math="0" shadow="0">
      <root>
        <mxCell id="0" />
        <mxCell id="1" parent="0" />
        <mxCell id="gCcxQm3LEe_V0J3JL_63-2" style="edgeStyle=orthogonalEdgeStyle;rounded=0;orthogonalLoop=1;jettySize=auto;html=1;entryX=0.5;entryY=0;entryDx=0;entryDy=0;" edge="1" parent="1" source="VTNpk5MSTafo6TSC0KG9-1" target="gCcxQm3LEe_V0J3JL_63-1">
          <mxGeometry relative="1" as="geometry" />
        </mxCell>
        <mxCell id="VTNpk5MSTafo6TSC0KG9-1" value="Start" style="ellipse;whiteSpace=wrap;html=1;aspect=fixed;fillColor=#f5f5f5;fontColor=#333333;strokeColor=#666666;" parent="1" vertex="1">
          <mxGeometry x="110" y="-150" width="80" height="80" as="geometry" />
        </mxCell>
        <mxCell id="VTNpk5MSTafo6TSC0KG9-2" value="End" style="ellipse;whiteSpace=wrap;html=1;aspect=fixed;fillColor=#f5f5f5;fontColor=#333333;strokeColor=#666666;" parent="1" vertex="1">
          <mxGeometry x="-310" y="590" width="80" height="80" as="geometry" />
        </mxCell>
        <mxCell id="VTNpk5MSTafo6TSC0KG9-6" style="edgeStyle=orthogonalEdgeStyle;rounded=0;orthogonalLoop=1;jettySize=auto;html=1;" parent="1" source="VTNpk5MSTafo6TSC0KG9-3" target="VTNpk5MSTafo6TSC0KG9-4" edge="1">
          <mxGeometry relative="1" as="geometry" />
        </mxCell>
        <mxCell id="4yMU1Whi-gC2mZJZzgzj-30" style="edgeStyle=orthogonalEdgeStyle;rounded=0;orthogonalLoop=1;jettySize=auto;html=1;entryX=0.89;entryY=0.43;entryDx=0;entryDy=0;entryPerimeter=0;dashed=1;endArrow=none;endFill=0;" parent="1" source="VTNpk5MSTafo6TSC0KG9-3" target="4yMU1Whi-gC2mZJZzgzj-29" edge="1">
          <mxGeometry relative="1" as="geometry" />
        </mxCell>
        <mxCell id="VTNpk5MSTafo6TSC0KG9-3" value="Login TaxSolver" style="rounded=1;whiteSpace=wrap;html=1;" parent="1" vertex="1">
          <mxGeometry x="90" y="250" width="120" height="60" as="geometry" />
        </mxCell>
        <mxCell id="4yMU1Whi-gC2mZJZzgzj-7" style="edgeStyle=orthogonalEdgeStyle;rounded=0;orthogonalLoop=1;jettySize=auto;html=1;entryX=0.5;entryY=0;entryDx=0;entryDy=0;" parent="1" source="VTNpk5MSTafo6TSC0KG9-4" target="VTNpk5MSTafo6TSC0KG9-10" edge="1">
          <mxGeometry relative="1" as="geometry" />
        </mxCell>
        <mxCell id="4yMU1Whi-gC2mZJZzgzj-31" style="edgeStyle=orthogonalEdgeStyle;rounded=0;orthogonalLoop=1;jettySize=auto;html=1;entryX=0.96;entryY=0.7;entryDx=0;entryDy=0;entryPerimeter=0;dashed=1;endArrow=none;endFill=0;" parent="1" source="VTNpk5MSTafo6TSC0KG9-4" target="4yMU1Whi-gC2mZJZzgzj-29" edge="1">
          <mxGeometry relative="1" as="geometry" />
        </mxCell>
        <mxCell id="VTNpk5MSTafo6TSC0KG9-4" value="Go to Returns page" style="rounded=1;whiteSpace=wrap;html=1;" parent="1" vertex="1">
          <mxGeometry x="90" y="340" width="120" height="60" as="geometry" />
        </mxCell>
        <mxCell id="4yMU1Whi-gC2mZJZzgzj-23" style="edgeStyle=orthogonalEdgeStyle;rounded=0;orthogonalLoop=1;jettySize=auto;html=1;entryX=1;entryY=0.5;entryDx=0;entryDy=0;dashed=1;" parent="1" source="VTNpk5MSTafo6TSC0KG9-8" target="4yMU1Whi-gC2mZJZzgzj-22" edge="1">
          <mxGeometry relative="1" as="geometry" />
        </mxCell>
        <mxCell id="wubjcOam9Ox6wyEzqu-S-1" style="edgeStyle=orthogonalEdgeStyle;rounded=0;orthogonalLoop=1;jettySize=auto;html=1;entryX=0.5;entryY=1;entryDx=0;entryDy=0;dashed=1;endArrow=none;endFill=0;" parent="1" source="VTNpk5MSTafo6TSC0KG9-8" target="VTNpk5MSTafo6TSC0KG9-4" edge="1">
          <mxGeometry relative="1" as="geometry" />
        </mxCell>
        <mxCell id="VTNpk5MSTafo6TSC0KG9-8" value="Apply Filters" style="rounded=1;whiteSpace=wrap;html=1;dashed=1;dashPattern=8 8;" parent="1" vertex="1">
          <mxGeometry x="90" y="460" width="120" height="60" as="geometry" />
        </mxCell>
        <mxCell id="fT5nxVJrPxYAfIbTPvGL-3" style="edgeStyle=orthogonalEdgeStyle;rounded=0;orthogonalLoop=1;jettySize=auto;html=1;" parent="1" source="VTNpk5MSTafo6TSC0KG9-10" target="bIbALggmOkPkgdIXSmAT-1" edge="1">
          <mxGeometry relative="1" as="geometry" />
        </mxCell>
        <mxCell id="VTNpk5MSTafo6TSC0KG9-10" value="For Each Return line" style="shape=parallelogram;perimeter=parallelogramPerimeter;whiteSpace=wrap;html=1;fixedSize=1;fillColor=#a20025;fontColor=#ffffff;strokeColor=#6F0000;" parent="1" vertex="1">
          <mxGeometry x="360" y="50" width="160" height="60" as="geometry" />
        </mxCell>
        <mxCell id="fT5nxVJrPxYAfIbTPvGL-2" style="edgeStyle=orthogonalEdgeStyle;rounded=0;orthogonalLoop=1;jettySize=auto;html=1;" parent="1" source="bIbALggmOkPkgdIXSmAT-1" target="U-lf9_mIrZiCXH1qZA7K-1" edge="1">
          <mxGeometry relative="1" as="geometry" />
        </mxCell>
        <mxCell id="bIbALggmOkPkgdIXSmAT-1" value="Check adjustments" style="shape=process;whiteSpace=wrap;html=1;backgroundOutline=1;fillColor=#1ba1e2;fontColor=#ffffff;strokeColor=#006EAF;" parent="1" vertex="1">
          <mxGeometry x="380" y="145" width="120" height="60" as="geometry" />
        </mxCell>
        <mxCell id="U-lf9_mIrZiCXH1qZA7K-6" style="edgeStyle=orthogonalEdgeStyle;rounded=0;orthogonalLoop=1;jettySize=auto;html=1;entryX=0.5;entryY=0;entryDx=0;entryDy=0;" parent="1" source="U-lf9_mIrZiCXH1qZA7K-1" target="U-lf9_mIrZiCXH1qZA7K-2" edge="1">
          <mxGeometry relative="1" as="geometry" />
        </mxCell>
        <mxCell id="U-lf9_mIrZiCXH1qZA7K-1" value="Check other deductions" style="shape=process;whiteSpace=wrap;html=1;backgroundOutline=1;fillColor=#1ba1e2;fontColor=#ffffff;strokeColor=#006EAF;" parent="1" vertex="1">
          <mxGeometry x="380" y="240" width="120" height="60" as="geometry" />
        </mxCell>
        <mxCell id="U-lf9_mIrZiCXH1qZA7K-12" style="edgeStyle=orthogonalEdgeStyle;rounded=0;orthogonalLoop=1;jettySize=auto;html=1;entryX=0.5;entryY=0;entryDx=0;entryDy=0;" parent="1" source="U-lf9_mIrZiCXH1qZA7K-2" target="U-lf9_mIrZiCXH1qZA7K-16" edge="1">
          <mxGeometry relative="1" as="geometry">
            <mxPoint x="440" y="490" as="targetPoint" />
          </mxGeometry>
        </mxCell>
        <mxCell id="U-lf9_mIrZiCXH1qZA7K-2" value="Check unique balance" style="shape=process;whiteSpace=wrap;html=1;backgroundOutline=1;fillColor=#1ba1e2;fontColor=#ffffff;strokeColor=#006EAF;" parent="1" vertex="1">
          <mxGeometry x="380" y="370" width="120" height="60" as="geometry" />
        </mxCell>
        <mxCell id="U-lf9_mIrZiCXH1qZA7K-9" style="edgeStyle=orthogonalEdgeStyle;rounded=0;orthogonalLoop=1;jettySize=auto;html=1;entryX=1;entryY=0.5;entryDx=0;entryDy=0;exitX=1;exitY=0.5;exitDx=0;exitDy=0;" parent="1" source="U-lf9_mIrZiCXH1qZA7K-8" target="VTNpk5MSTafo6TSC0KG9-10" edge="1">
          <mxGeometry relative="1" as="geometry">
            <Array as="points">
              <mxPoint x="810" y="630" />
              <mxPoint x="810" y="80" />
            </Array>
          </mxGeometry>
        </mxCell>
        <mxCell id="U-lf9_mIrZiCXH1qZA7K-14" style="edgeStyle=orthogonalEdgeStyle;rounded=0;orthogonalLoop=1;jettySize=auto;html=1;" parent="1" source="U-lf9_mIrZiCXH1qZA7K-8" target="U-lf9_mIrZiCXH1qZA7K-11" edge="1">
          <mxGeometry relative="1" as="geometry" />
        </mxCell>
        <mxCell id="U-lf9_mIrZiCXH1qZA7K-8" value="Have returns left?" style="rhombus;whiteSpace=wrap;html=1;fillColor=#a20025;fontColor=#ffffff;strokeColor=#6F0000;" parent="1" vertex="1">
          <mxGeometry x="400" y="590" width="80" height="80" as="geometry" />
        </mxCell>
        <mxCell id="U-lf9_mIrZiCXH1qZA7K-10" value="Yes" style="text;html=1;align=center;verticalAlign=middle;resizable=0;points=[];autosize=1;strokeColor=none;fillColor=none;" parent="1" vertex="1">
          <mxGeometry x="490" y="600" width="40" height="30" as="geometry" />
        </mxCell>
        <mxCell id="U-lf9_mIrZiCXH1qZA7K-21" style="edgeStyle=orthogonalEdgeStyle;rounded=0;orthogonalLoop=1;jettySize=auto;html=1;" parent="1" source="U-lf9_mIrZiCXH1qZA7K-11" target="U-lf9_mIrZiCXH1qZA7K-20" edge="1">
          <mxGeometry relative="1" as="geometry" />
        </mxCell>
        <mxCell id="U-lf9_mIrZiCXH1qZA7K-11" value="Logout Taxsolver" style="rounded=1;whiteSpace=wrap;html=1;" parent="1" vertex="1">
          <mxGeometry x="90" y="600" width="120" height="60" as="geometry" />
        </mxCell>
        <mxCell id="U-lf9_mIrZiCXH1qZA7K-15" value="No" style="text;html=1;align=center;verticalAlign=middle;resizable=0;points=[];autosize=1;strokeColor=none;fillColor=none;" parent="1" vertex="1">
          <mxGeometry x="360" y="600" width="40" height="30" as="geometry" />
        </mxCell>
        <mxCell id="U-lf9_mIrZiCXH1qZA7K-18" style="edgeStyle=orthogonalEdgeStyle;rounded=0;orthogonalLoop=1;jettySize=auto;html=1;" parent="1" source="U-lf9_mIrZiCXH1qZA7K-16" target="U-lf9_mIrZiCXH1qZA7K-8" edge="1">
          <mxGeometry relative="1" as="geometry" />
        </mxCell>
        <mxCell id="U-lf9_mIrZiCXH1qZA7K-16" value="Set return results in Review Sheet" style="shape=process;whiteSpace=wrap;html=1;backgroundOutline=1;fillColor=#60a917;fontColor=#ffffff;strokeColor=#2D7600;" parent="1" vertex="1">
          <mxGeometry x="380" y="510" width="120" height="60" as="geometry" />
        </mxCell>
        <mxCell id="U-lf9_mIrZiCXH1qZA7K-22" style="edgeStyle=orthogonalEdgeStyle;rounded=0;orthogonalLoop=1;jettySize=auto;html=1;entryX=1;entryY=0.5;entryDx=0;entryDy=0;" parent="1" source="U-lf9_mIrZiCXH1qZA7K-20" target="VTNpk5MSTafo6TSC0KG9-2" edge="1">
          <mxGeometry relative="1" as="geometry" />
        </mxCell>
        <mxCell id="U-lf9_mIrZiCXH1qZA7K-20" value="Send report to user via email" style="rounded=1;whiteSpace=wrap;html=1;fillColor=#60a917;fontColor=#ffffff;strokeColor=#2D7600;" parent="1" vertex="1">
          <mxGeometry x="-110" y="600" width="120" height="60" as="geometry" />
        </mxCell>
        <mxCell id="4yMU1Whi-gC2mZJZzgzj-3" style="edgeStyle=orthogonalEdgeStyle;rounded=0;orthogonalLoop=1;jettySize=auto;html=1;entryX=0.5;entryY=0;entryDx=0;entryDy=0;" parent="1" source="4yMU1Whi-gC2mZJZzgzj-1" target="VTNpk5MSTafo6TSC0KG9-3" edge="1">
          <mxGeometry relative="1" as="geometry" />
        </mxCell>
        <mxCell id="4yMU1Whi-gC2mZJZzgzj-12" style="edgeStyle=orthogonalEdgeStyle;rounded=0;orthogonalLoop=1;jettySize=auto;html=1;entryX=0.875;entryY=0.5;entryDx=0;entryDy=0;entryPerimeter=0;dashed=1;" parent="1" source="4yMU1Whi-gC2mZJZzgzj-1" target="4yMU1Whi-gC2mZJZzgzj-11" edge="1">
          <mxGeometry relative="1" as="geometry">
            <Array as="points">
              <mxPoint x="40" y="190" />
              <mxPoint x="40" y="230" />
            </Array>
          </mxGeometry>
        </mxCell>
        <mxCell id="4yMU1Whi-gC2mZJZzgzj-1" value="Upload Return Items to Queue" style="shape=process;whiteSpace=wrap;html=1;backgroundOutline=1;" parent="1" vertex="1">
          <mxGeometry x="90" y="150" width="120" height="60" as="geometry" />
        </mxCell>
        <mxCell id="4yMU1Whi-gC2mZJZzgzj-5" style="edgeStyle=orthogonalEdgeStyle;rounded=0;orthogonalLoop=1;jettySize=auto;html=1;" parent="1" source="4yMU1Whi-gC2mZJZzgzj-4" target="4yMU1Whi-gC2mZJZzgzj-1" edge="1">
          <mxGeometry relative="1" as="geometry" />
        </mxCell>
        <mxCell id="4yMU1Whi-gC2mZJZzgzj-4" value="TFR.xlsx" style="shape=note;whiteSpace=wrap;html=1;backgroundOutline=1;darkOpacity=0.05;fillColor=#6d8764;fontColor=#ffffff;strokeColor=#3A5431;" parent="1" vertex="1">
          <mxGeometry x="-70" y="90" width="60" height="80" as="geometry" />
        </mxCell>
        <mxCell id="4yMU1Whi-gC2mZJZzgzj-11" value="Orchestrator" style="ellipse;shape=cloud;whiteSpace=wrap;html=1;fillColor=#f0a30a;fontColor=#000000;strokeColor=#BD7000;" parent="1" vertex="1">
          <mxGeometry x="-100" y="190" width="120" height="80" as="geometry" />
        </mxCell>
        <mxCell id="4yMU1Whi-gC2mZJZzgzj-14" style="edgeStyle=orthogonalEdgeStyle;rounded=0;orthogonalLoop=1;jettySize=auto;html=1;entryX=1;entryY=0.5;entryDx=0;entryDy=0;dashed=1;endArrow=none;endFill=0;" parent="1" source="4yMU1Whi-gC2mZJZzgzj-13" target="U-lf9_mIrZiCXH1qZA7K-1" edge="1">
          <mxGeometry relative="1" as="geometry">
            <Array as="points">
              <mxPoint x="595" y="340" />
              <mxPoint x="595" y="320" />
              <mxPoint x="500" y="320" />
            </Array>
          </mxGeometry>
        </mxCell>
        <mxCell id="4yMU1Whi-gC2mZJZzgzj-15" style="edgeStyle=orthogonalEdgeStyle;rounded=0;orthogonalLoop=1;jettySize=auto;html=1;exitX=0.16;exitY=0.55;exitDx=0;exitDy=0;exitPerimeter=0;entryX=1;entryY=0.5;entryDx=0;entryDy=0;dashed=1;endArrow=none;endFill=0;" parent="1" source="4yMU1Whi-gC2mZJZzgzj-13" target="U-lf9_mIrZiCXH1qZA7K-2" edge="1">
          <mxGeometry relative="1" as="geometry">
            <Array as="points">
              <mxPoint x="595" y="345" />
              <mxPoint x="595" y="380" />
              <mxPoint x="500" y="380" />
            </Array>
          </mxGeometry>
        </mxCell>
        <mxCell id="4yMU1Whi-gC2mZJZzgzj-13" value="TaxSolver (Returns page)" style="ellipse;shape=cloud;whiteSpace=wrap;html=1;fillColor=#76608a;fontColor=#ffffff;strokeColor=#432D57;" parent="1" vertex="1">
          <mxGeometry x="690" y="290" width="100" height="100" as="geometry" />
        </mxCell>
        <mxCell id="4yMU1Whi-gC2mZJZzgzj-17" style="edgeStyle=orthogonalEdgeStyle;rounded=0;orthogonalLoop=1;jettySize=auto;html=1;entryX=1;entryY=0.5;entryDx=0;entryDy=0;" parent="1" source="4yMU1Whi-gC2mZJZzgzj-16" target="U-lf9_mIrZiCXH1qZA7K-1" edge="1">
          <mxGeometry relative="1" as="geometry" />
        </mxCell>
        <mxCell id="4yMU1Whi-gC2mZJZzgzj-16" value="Other deductions List.xlsx" style="shape=note;whiteSpace=wrap;html=1;backgroundOutline=1;darkOpacity=0.05;size=20;fillColor=#6d8764;fontColor=#ffffff;strokeColor=#3A5431;" parent="1" vertex="1">
          <mxGeometry x="570" y="230" width="70" height="80" as="geometry" />
        </mxCell>
        <mxCell id="4yMU1Whi-gC2mZJZzgzj-19" style="edgeStyle=orthogonalEdgeStyle;rounded=0;orthogonalLoop=1;jettySize=auto;html=1;entryX=1;entryY=0.75;entryDx=0;entryDy=0;" parent="1" source="4yMU1Whi-gC2mZJZzgzj-18" target="U-lf9_mIrZiCXH1qZA7K-2" edge="1">
          <mxGeometry relative="1" as="geometry" />
        </mxCell>
        <mxCell id="4yMU1Whi-gC2mZJZzgzj-18" value="State balancing list.xlsx" style="shape=note;whiteSpace=wrap;html=1;backgroundOutline=1;darkOpacity=0.05;size=20;fillColor=#6d8764;fontColor=#ffffff;strokeColor=#3A5431;" parent="1" vertex="1">
          <mxGeometry x="570" y="400" width="70" height="80" as="geometry" />
        </mxCell>
        <mxCell id="4yMU1Whi-gC2mZJZzgzj-21" style="edgeStyle=orthogonalEdgeStyle;rounded=0;orthogonalLoop=1;jettySize=auto;html=1;entryX=1;entryY=0.5;entryDx=0;entryDy=0;" parent="1" source="4yMU1Whi-gC2mZJZzgzj-20" target="bIbALggmOkPkgdIXSmAT-1" edge="1">
          <mxGeometry relative="1" as="geometry" />
        </mxCell>
        <mxCell id="4yMU1Whi-gC2mZJZzgzj-20" value="Adjustment margins.xlsx" style="shape=note;whiteSpace=wrap;html=1;backgroundOutline=1;darkOpacity=0.05;size=23;fillColor=#6d8764;fontColor=#ffffff;strokeColor=#3A5431;" parent="1" vertex="1">
          <mxGeometry x="565" y="140" width="80" height="70" as="geometry" />
        </mxCell>
        <mxCell id="4yMU1Whi-gC2mZJZzgzj-22" value="The user needs to apply filters in Return page in advance (before running the bot)" style="text;html=1;strokeColor=default;fillColor=none;align=center;verticalAlign=middle;whiteSpace=wrap;rounded=0;dashed=1;dashPattern=8 8;" parent="1" vertex="1">
          <mxGeometry x="-190" y="442.5" width="150" height="95" as="geometry" />
        </mxCell>
        <mxCell id="4yMU1Whi-gC2mZJZzgzj-26" style="edgeStyle=orthogonalEdgeStyle;rounded=0;orthogonalLoop=1;jettySize=auto;html=1;entryX=1;entryY=0.5;entryDx=0;entryDy=0;" parent="1" source="4yMU1Whi-gC2mZJZzgzj-25" target="U-lf9_mIrZiCXH1qZA7K-16" edge="1">
          <mxGeometry relative="1" as="geometry" />
        </mxCell>
        <mxCell id="4yMU1Whi-gC2mZJZzgzj-25" value="Results report.xlsx" style="shape=note;whiteSpace=wrap;html=1;backgroundOutline=1;darkOpacity=0.05;fillColor=#6d8764;fontColor=#ffffff;strokeColor=#3A5431;" parent="1" vertex="1">
          <mxGeometry x="570" y="500" width="70" height="80" as="geometry" />
        </mxCell>
        <mxCell id="4yMU1Whi-gC2mZJZzgzj-28" style="edgeStyle=orthogonalEdgeStyle;rounded=0;orthogonalLoop=1;jettySize=auto;html=1;" parent="1" source="4yMU1Whi-gC2mZJZzgzj-27" target="U-lf9_mIrZiCXH1qZA7K-20" edge="1">
          <mxGeometry relative="1" as="geometry">
            <Array as="points">
              <mxPoint x="-50" y="555" />
            </Array>
          </mxGeometry>
        </mxCell>
        <mxCell id="4yMU1Whi-gC2mZJZzgzj-27" value="Results report.xlsx" style="shape=note;whiteSpace=wrap;html=1;backgroundOutline=1;darkOpacity=0.05;fillColor=#6d8764;fontColor=#ffffff;strokeColor=#3A5431;" parent="1" vertex="1">
          <mxGeometry x="-20" y="530" width="70" height="50" as="geometry" />
        </mxCell>
        <mxCell id="4yMU1Whi-gC2mZJZzgzj-29" value="TaxSolver (Returns page)" style="ellipse;shape=cloud;whiteSpace=wrap;html=1;fillColor=#76608a;fontColor=#ffffff;strokeColor=#432D57;" parent="1" vertex="1">
          <mxGeometry x="-80" y="300" width="100" height="100" as="geometry" />
        </mxCell>
        <mxCell id="gCcxQm3LEe_V0J3JL_63-3" style="edgeStyle=orthogonalEdgeStyle;rounded=0;orthogonalLoop=1;jettySize=auto;html=1;" edge="1" parent="1" source="gCcxQm3LEe_V0J3JL_63-1" target="4yMU1Whi-gC2mZJZzgzj-1">
          <mxGeometry relative="1" as="geometry" />
        </mxCell>
        <mxCell id="gCcxQm3LEe_V0J3JL_63-1" value="Prepare Review Sheet" style="shape=process;whiteSpace=wrap;html=1;backgroundOutline=1;" vertex="1" parent="1">
          <mxGeometry x="90" y="10" width="120" height="60" as="geometry" />
        </mxCell>
      </root>
    </mxGraphModel>
  </diagram>
  <diagram name="1st Bot Version" id="soyiAYvQbo1LjA6wKd6d">
    <mxGraphModel dx="1793" dy="978" grid="1" gridSize="10" guides="0" tooltips="1" connect="1" arrows="1" fold="1" page="1" pageScale="1" pageWidth="850" pageHeight="1100" math="0" shadow="0">
      <root>
        <mxCell id="wfU0l5_XjZCZ8PXjGs2P-0" />
        <mxCell id="wfU0l5_XjZCZ8PXjGs2P-1" parent="wfU0l5_XjZCZ8PXjGs2P-0" />
        <mxCell id="TB8GFgC2SJ7v7BaEAu4f-0" style="edgeStyle=orthogonalEdgeStyle;rounded=0;orthogonalLoop=1;jettySize=auto;html=1;entryX=0.5;entryY=0;entryDx=0;entryDy=0;" edge="1" parent="wfU0l5_XjZCZ8PXjGs2P-1" source="wfU0l5_XjZCZ8PXjGs2P-3" target="wfU0l5_XjZCZ8PXjGs2P-35">
          <mxGeometry relative="1" as="geometry" />
        </mxCell>
        <mxCell id="wfU0l5_XjZCZ8PXjGs2P-3" value="Start" style="ellipse;whiteSpace=wrap;html=1;aspect=fixed;fillColor=#f5f5f5;fontColor=#333333;strokeColor=#666666;" vertex="1" parent="wfU0l5_XjZCZ8PXjGs2P-1">
          <mxGeometry x="330" y="20" width="80" height="80" as="geometry" />
        </mxCell>
        <mxCell id="wfU0l5_XjZCZ8PXjGs2P-4" value="End" style="ellipse;whiteSpace=wrap;html=1;aspect=fixed;fillColor=#f5f5f5;fontColor=#333333;strokeColor=#666666;" vertex="1" parent="wfU0l5_XjZCZ8PXjGs2P-1">
          <mxGeometry x="330" y="1040" width="80" height="80" as="geometry" />
        </mxCell>
        <mxCell id="wfU0l5_XjZCZ8PXjGs2P-14" style="edgeStyle=orthogonalEdgeStyle;rounded=0;orthogonalLoop=1;jettySize=auto;html=1;" edge="1" parent="wfU0l5_XjZCZ8PXjGs2P-1" source="wfU0l5_XjZCZ8PXjGs2P-15" target="wfU0l5_XjZCZ8PXjGs2P-17">
          <mxGeometry relative="1" as="geometry" />
        </mxCell>
        <mxCell id="wfU0l5_XjZCZ8PXjGs2P-15" value="For Each Return line" style="shape=parallelogram;perimeter=parallelogramPerimeter;whiteSpace=wrap;html=1;fixedSize=1;fillColor=#a20025;fontColor=#ffffff;strokeColor=#6F0000;" vertex="1" parent="wfU0l5_XjZCZ8PXjGs2P-1">
          <mxGeometry x="290" y="250" width="160" height="60" as="geometry" />
        </mxCell>
        <mxCell id="wfU0l5_XjZCZ8PXjGs2P-16" style="edgeStyle=orthogonalEdgeStyle;rounded=0;orthogonalLoop=1;jettySize=auto;html=1;" edge="1" parent="wfU0l5_XjZCZ8PXjGs2P-1" source="wfU0l5_XjZCZ8PXjGs2P-17" target="wfU0l5_XjZCZ8PXjGs2P-19">
          <mxGeometry relative="1" as="geometry" />
        </mxCell>
        <mxCell id="wfU0l5_XjZCZ8PXjGs2P-17" value="Check adjustments" style="shape=process;whiteSpace=wrap;html=1;backgroundOutline=1;fillColor=#1ba1e2;fontColor=#ffffff;strokeColor=#006EAF;" vertex="1" parent="wfU0l5_XjZCZ8PXjGs2P-1">
          <mxGeometry x="310" y="345" width="120" height="60" as="geometry" />
        </mxCell>
        <mxCell id="wfU0l5_XjZCZ8PXjGs2P-18" style="edgeStyle=orthogonalEdgeStyle;rounded=0;orthogonalLoop=1;jettySize=auto;html=1;entryX=0.5;entryY=0;entryDx=0;entryDy=0;" edge="1" parent="wfU0l5_XjZCZ8PXjGs2P-1" source="wfU0l5_XjZCZ8PXjGs2P-19" target="wfU0l5_XjZCZ8PXjGs2P-21">
          <mxGeometry relative="1" as="geometry" />
        </mxCell>
        <mxCell id="wfU0l5_XjZCZ8PXjGs2P-19" value="Check other deductions" style="shape=process;whiteSpace=wrap;html=1;backgroundOutline=1;fillColor=#1ba1e2;fontColor=#ffffff;strokeColor=#006EAF;" vertex="1" parent="wfU0l5_XjZCZ8PXjGs2P-1">
          <mxGeometry x="310" y="440" width="120" height="60" as="geometry" />
        </mxCell>
        <mxCell id="wfU0l5_XjZCZ8PXjGs2P-20" style="edgeStyle=orthogonalEdgeStyle;rounded=0;orthogonalLoop=1;jettySize=auto;html=1;entryX=0.5;entryY=0;entryDx=0;entryDy=0;" edge="1" parent="wfU0l5_XjZCZ8PXjGs2P-1" source="wfU0l5_XjZCZ8PXjGs2P-21" target="wfU0l5_XjZCZ8PXjGs2P-30">
          <mxGeometry relative="1" as="geometry">
            <mxPoint x="370" y="690" as="targetPoint" />
          </mxGeometry>
        </mxCell>
        <mxCell id="wfU0l5_XjZCZ8PXjGs2P-21" value="Check unique balance" style="shape=process;whiteSpace=wrap;html=1;backgroundOutline=1;fillColor=#1ba1e2;fontColor=#ffffff;strokeColor=#006EAF;" vertex="1" parent="wfU0l5_XjZCZ8PXjGs2P-1">
          <mxGeometry x="310" y="540" width="120" height="60" as="geometry" />
        </mxCell>
        <mxCell id="wfU0l5_XjZCZ8PXjGs2P-22" style="edgeStyle=orthogonalEdgeStyle;rounded=0;orthogonalLoop=1;jettySize=auto;html=1;entryX=1;entryY=0.5;entryDx=0;entryDy=0;exitX=1;exitY=0.5;exitDx=0;exitDy=0;" edge="1" parent="wfU0l5_XjZCZ8PXjGs2P-1" source="wfU0l5_XjZCZ8PXjGs2P-24" target="wfU0l5_XjZCZ8PXjGs2P-15">
          <mxGeometry relative="1" as="geometry">
            <Array as="points">
              <mxPoint x="740" y="780" />
              <mxPoint x="740" y="280" />
            </Array>
          </mxGeometry>
        </mxCell>
        <mxCell id="wfU0l5_XjZCZ8PXjGs2P-23" style="edgeStyle=orthogonalEdgeStyle;rounded=0;orthogonalLoop=1;jettySize=auto;html=1;" edge="1" parent="wfU0l5_XjZCZ8PXjGs2P-1" source="wfU0l5_XjZCZ8PXjGs2P-24" target="wfU0l5_XjZCZ8PXjGs2P-27">
          <mxGeometry relative="1" as="geometry" />
        </mxCell>
        <mxCell id="wfU0l5_XjZCZ8PXjGs2P-24" value="Have returns left?" style="rhombus;whiteSpace=wrap;html=1;fillColor=#a20025;fontColor=#ffffff;strokeColor=#6F0000;" vertex="1" parent="wfU0l5_XjZCZ8PXjGs2P-1">
          <mxGeometry x="330" y="740" width="80" height="80" as="geometry" />
        </mxCell>
        <mxCell id="wfU0l5_XjZCZ8PXjGs2P-25" value="Yes" style="text;html=1;align=center;verticalAlign=middle;resizable=0;points=[];autosize=1;strokeColor=none;fillColor=none;" vertex="1" parent="wfU0l5_XjZCZ8PXjGs2P-1">
          <mxGeometry x="420" y="750" width="40" height="30" as="geometry" />
        </mxCell>
        <mxCell id="wfU0l5_XjZCZ8PXjGs2P-26" style="edgeStyle=orthogonalEdgeStyle;rounded=0;orthogonalLoop=1;jettySize=auto;html=1;" edge="1" parent="wfU0l5_XjZCZ8PXjGs2P-1" source="wfU0l5_XjZCZ8PXjGs2P-27" target="wfU0l5_XjZCZ8PXjGs2P-32">
          <mxGeometry relative="1" as="geometry" />
        </mxCell>
        <mxCell id="wfU0l5_XjZCZ8PXjGs2P-27" value="Logout Taxsolver" style="rounded=1;whiteSpace=wrap;html=1;" vertex="1" parent="wfU0l5_XjZCZ8PXjGs2P-1">
          <mxGeometry x="310" y="850" width="120" height="60" as="geometry" />
        </mxCell>
        <mxCell id="wfU0l5_XjZCZ8PXjGs2P-28" value="No" style="text;html=1;align=center;verticalAlign=middle;resizable=0;points=[];autosize=1;strokeColor=none;fillColor=none;" vertex="1" parent="wfU0l5_XjZCZ8PXjGs2P-1">
          <mxGeometry x="380" y="820" width="40" height="30" as="geometry" />
        </mxCell>
        <mxCell id="TB8GFgC2SJ7v7BaEAu4f-5" style="edgeStyle=orthogonalEdgeStyle;rounded=0;orthogonalLoop=1;jettySize=auto;html=1;entryX=0.5;entryY=0;entryDx=0;entryDy=0;" edge="1" parent="wfU0l5_XjZCZ8PXjGs2P-1" source="wfU0l5_XjZCZ8PXjGs2P-30" target="wfU0l5_XjZCZ8PXjGs2P-24">
          <mxGeometry relative="1" as="geometry" />
        </mxCell>
        <mxCell id="wfU0l5_XjZCZ8PXjGs2P-30" value="Set return results in Review Sheet" style="shape=process;whiteSpace=wrap;html=1;backgroundOutline=1;fillColor=#60a917;fontColor=#ffffff;strokeColor=#2D7600;" vertex="1" parent="wfU0l5_XjZCZ8PXjGs2P-1">
          <mxGeometry x="310" y="650" width="120" height="60" as="geometry" />
        </mxCell>
        <mxCell id="TB8GFgC2SJ7v7BaEAu4f-6" style="edgeStyle=orthogonalEdgeStyle;rounded=0;orthogonalLoop=1;jettySize=auto;html=1;entryX=0.5;entryY=0;entryDx=0;entryDy=0;" edge="1" parent="wfU0l5_XjZCZ8PXjGs2P-1" source="wfU0l5_XjZCZ8PXjGs2P-32" target="wfU0l5_XjZCZ8PXjGs2P-4">
          <mxGeometry relative="1" as="geometry" />
        </mxCell>
        <mxCell id="TB8GFgC2SJ7v7BaEAu4f-8" style="edgeStyle=orthogonalEdgeStyle;rounded=0;orthogonalLoop=1;jettySize=auto;html=1;entryX=0;entryY=0.5;entryDx=0;entryDy=0;entryPerimeter=0;" edge="1" parent="wfU0l5_XjZCZ8PXjGs2P-1" source="wfU0l5_XjZCZ8PXjGs2P-32" target="TB8GFgC2SJ7v7BaEAu4f-7">
          <mxGeometry relative="1" as="geometry" />
        </mxCell>
        <mxCell id="wfU0l5_XjZCZ8PXjGs2P-32" value="Send Review Sheet to user via email" style="rounded=1;whiteSpace=wrap;html=1;fillColor=#60a917;fontColor=#ffffff;strokeColor=#2D7600;" vertex="1" parent="wfU0l5_XjZCZ8PXjGs2P-1">
          <mxGeometry x="310" y="950" width="120" height="60" as="geometry" />
        </mxCell>
        <mxCell id="wfU0l5_XjZCZ8PXjGs2P-34" style="edgeStyle=orthogonalEdgeStyle;rounded=0;orthogonalLoop=1;jettySize=auto;html=1;entryX=0.875;entryY=0.5;entryDx=0;entryDy=0;entryPerimeter=0;dashed=1;" edge="1" parent="wfU0l5_XjZCZ8PXjGs2P-1" source="wfU0l5_XjZCZ8PXjGs2P-35" target="wfU0l5_XjZCZ8PXjGs2P-38">
          <mxGeometry relative="1" as="geometry">
            <Array as="points">
              <mxPoint x="250" y="180" />
              <mxPoint x="250" y="230" />
            </Array>
          </mxGeometry>
        </mxCell>
        <mxCell id="TB8GFgC2SJ7v7BaEAu4f-2" style="edgeStyle=orthogonalEdgeStyle;rounded=0;orthogonalLoop=1;jettySize=auto;html=1;entryX=0.5;entryY=0;entryDx=0;entryDy=0;" edge="1" parent="wfU0l5_XjZCZ8PXjGs2P-1" source="wfU0l5_XjZCZ8PXjGs2P-35" target="wfU0l5_XjZCZ8PXjGs2P-15">
          <mxGeometry relative="1" as="geometry" />
        </mxCell>
        <mxCell id="wfU0l5_XjZCZ8PXjGs2P-35" value="Upload Return Items to Queue" style="shape=process;whiteSpace=wrap;html=1;backgroundOutline=1;" vertex="1" parent="wfU0l5_XjZCZ8PXjGs2P-1">
          <mxGeometry x="310" y="150" width="120" height="60" as="geometry" />
        </mxCell>
        <mxCell id="wfU0l5_XjZCZ8PXjGs2P-36" style="edgeStyle=orthogonalEdgeStyle;rounded=0;orthogonalLoop=1;jettySize=auto;html=1;" edge="1" parent="wfU0l5_XjZCZ8PXjGs2P-1" source="wfU0l5_XjZCZ8PXjGs2P-37" target="wfU0l5_XjZCZ8PXjGs2P-35">
          <mxGeometry relative="1" as="geometry">
            <Array as="points">
              <mxPoint x="170" y="180" />
            </Array>
          </mxGeometry>
        </mxCell>
        <mxCell id="wfU0l5_XjZCZ8PXjGs2P-37" value="TFR.xlsx" style="shape=note;whiteSpace=wrap;html=1;backgroundOutline=1;darkOpacity=0.05;fillColor=#6d8764;fontColor=#ffffff;strokeColor=#3A5431;" vertex="1" parent="wfU0l5_XjZCZ8PXjGs2P-1">
          <mxGeometry x="150" y="80" width="60" height="80" as="geometry" />
        </mxCell>
        <mxCell id="TB8GFgC2SJ7v7BaEAu4f-1" style="edgeStyle=orthogonalEdgeStyle;rounded=0;orthogonalLoop=1;jettySize=auto;html=1;entryX=0;entryY=0.5;entryDx=0;entryDy=0;dashed=1;" edge="1" parent="wfU0l5_XjZCZ8PXjGs2P-1" source="wfU0l5_XjZCZ8PXjGs2P-38" target="wfU0l5_XjZCZ8PXjGs2P-15">
          <mxGeometry relative="1" as="geometry">
            <Array as="points">
              <mxPoint x="260" y="250" />
              <mxPoint x="260" y="280" />
            </Array>
          </mxGeometry>
        </mxCell>
        <mxCell id="wfU0l5_XjZCZ8PXjGs2P-38" value="Orchestrator" style="ellipse;shape=cloud;whiteSpace=wrap;html=1;fillColor=#f0a30a;fontColor=#000000;strokeColor=#BD7000;" vertex="1" parent="wfU0l5_XjZCZ8PXjGs2P-1">
          <mxGeometry x="110" y="190" width="120" height="80" as="geometry" />
        </mxCell>
        <mxCell id="wfU0l5_XjZCZ8PXjGs2P-39" style="edgeStyle=orthogonalEdgeStyle;rounded=0;orthogonalLoop=1;jettySize=auto;html=1;entryX=0;entryY=0.5;entryDx=0;entryDy=0;dashed=1;endArrow=none;endFill=0;" edge="1" parent="wfU0l5_XjZCZ8PXjGs2P-1" source="wfU0l5_XjZCZ8PXjGs2P-41" target="wfU0l5_XjZCZ8PXjGs2P-19">
          <mxGeometry relative="1" as="geometry">
            <Array as="points">
              <mxPoint x="280" y="520" />
              <mxPoint x="280" y="470" />
            </Array>
          </mxGeometry>
        </mxCell>
        <mxCell id="wfU0l5_XjZCZ8PXjGs2P-40" style="edgeStyle=orthogonalEdgeStyle;rounded=0;orthogonalLoop=1;jettySize=auto;html=1;exitX=0.55;exitY=0.95;exitDx=0;exitDy=0;exitPerimeter=0;dashed=1;endArrow=none;endFill=0;entryX=0;entryY=0.5;entryDx=0;entryDy=0;" edge="1" parent="wfU0l5_XjZCZ8PXjGs2P-1" source="wfU0l5_XjZCZ8PXjGs2P-41" target="wfU0l5_XjZCZ8PXjGs2P-21">
          <mxGeometry relative="1" as="geometry">
            <Array as="points">
              <mxPoint x="260" y="565" />
              <mxPoint x="260" y="570" />
            </Array>
            <mxPoint x="430" y="600" as="targetPoint" />
          </mxGeometry>
        </mxCell>
        <mxCell id="wfU0l5_XjZCZ8PXjGs2P-41" value="TaxSolver (Returns page)" style="ellipse;shape=cloud;whiteSpace=wrap;html=1;fillColor=#76608a;fontColor=#ffffff;strokeColor=#432D57;" vertex="1" parent="wfU0l5_XjZCZ8PXjGs2P-1">
          <mxGeometry x="170" y="470" width="100" height="100" as="geometry" />
        </mxCell>
        <mxCell id="wfU0l5_XjZCZ8PXjGs2P-42" style="edgeStyle=orthogonalEdgeStyle;rounded=0;orthogonalLoop=1;jettySize=auto;html=1;entryX=1;entryY=0.5;entryDx=0;entryDy=0;" edge="1" parent="wfU0l5_XjZCZ8PXjGs2P-1" source="wfU0l5_XjZCZ8PXjGs2P-43" target="wfU0l5_XjZCZ8PXjGs2P-19">
          <mxGeometry relative="1" as="geometry" />
        </mxCell>
        <mxCell id="wfU0l5_XjZCZ8PXjGs2P-43" value="Other deductions List.xlsx" style="shape=note;whiteSpace=wrap;html=1;backgroundOutline=1;darkOpacity=0.05;size=20;fillColor=#6d8764;fontColor=#ffffff;strokeColor=#3A5431;" vertex="1" parent="wfU0l5_XjZCZ8PXjGs2P-1">
          <mxGeometry x="500" y="430" width="70" height="80" as="geometry" />
        </mxCell>
        <mxCell id="wfU0l5_XjZCZ8PXjGs2P-44" style="edgeStyle=orthogonalEdgeStyle;rounded=0;orthogonalLoop=1;jettySize=auto;html=1;entryX=1;entryY=0.5;entryDx=0;entryDy=0;" edge="1" parent="wfU0l5_XjZCZ8PXjGs2P-1" source="wfU0l5_XjZCZ8PXjGs2P-45" target="wfU0l5_XjZCZ8PXjGs2P-21">
          <mxGeometry relative="1" as="geometry" />
        </mxCell>
        <mxCell id="wfU0l5_XjZCZ8PXjGs2P-45" value="State balancing list.xlsx" style="shape=note;whiteSpace=wrap;html=1;backgroundOutline=1;darkOpacity=0.05;size=20;fillColor=#6d8764;fontColor=#ffffff;strokeColor=#3A5431;" vertex="1" parent="wfU0l5_XjZCZ8PXjGs2P-1">
          <mxGeometry x="500" y="530" width="70" height="80" as="geometry" />
        </mxCell>
        <mxCell id="wfU0l5_XjZCZ8PXjGs2P-46" style="edgeStyle=orthogonalEdgeStyle;rounded=0;orthogonalLoop=1;jettySize=auto;html=1;entryX=1;entryY=0.5;entryDx=0;entryDy=0;" edge="1" parent="wfU0l5_XjZCZ8PXjGs2P-1" source="wfU0l5_XjZCZ8PXjGs2P-47" target="wfU0l5_XjZCZ8PXjGs2P-17">
          <mxGeometry relative="1" as="geometry" />
        </mxCell>
        <mxCell id="wfU0l5_XjZCZ8PXjGs2P-47" value="Adjustment margins.xlsx" style="shape=note;whiteSpace=wrap;html=1;backgroundOutline=1;darkOpacity=0.05;size=23;fillColor=#6d8764;fontColor=#ffffff;strokeColor=#3A5431;" vertex="1" parent="wfU0l5_XjZCZ8PXjGs2P-1">
          <mxGeometry x="500" y="290" width="80" height="50" as="geometry" />
        </mxCell>
        <mxCell id="wfU0l5_XjZCZ8PXjGs2P-49" style="edgeStyle=orthogonalEdgeStyle;rounded=0;orthogonalLoop=1;jettySize=auto;html=1;entryX=1;entryY=0.5;entryDx=0;entryDy=0;" edge="1" parent="wfU0l5_XjZCZ8PXjGs2P-1" source="wfU0l5_XjZCZ8PXjGs2P-50" target="wfU0l5_XjZCZ8PXjGs2P-30">
          <mxGeometry relative="1" as="geometry" />
        </mxCell>
        <mxCell id="wfU0l5_XjZCZ8PXjGs2P-50" value="Review Sheet.xlsx" style="shape=note;whiteSpace=wrap;html=1;backgroundOutline=1;darkOpacity=0.05;fillColor=#6d8764;fontColor=#ffffff;strokeColor=#3A5431;" vertex="1" parent="wfU0l5_XjZCZ8PXjGs2P-1">
          <mxGeometry x="500" y="640" width="70" height="80" as="geometry" />
        </mxCell>
        <mxCell id="TB8GFgC2SJ7v7BaEAu4f-4" style="edgeStyle=orthogonalEdgeStyle;rounded=0;orthogonalLoop=1;jettySize=auto;html=1;entryX=1;entryY=0.5;entryDx=0;entryDy=0;" edge="1" parent="wfU0l5_XjZCZ8PXjGs2P-1" source="TB8GFgC2SJ7v7BaEAu4f-3" target="wfU0l5_XjZCZ8PXjGs2P-17">
          <mxGeometry relative="1" as="geometry">
            <Array as="points">
              <mxPoint x="465" y="385" />
              <mxPoint x="465" y="375" />
            </Array>
          </mxGeometry>
        </mxCell>
        <mxCell id="TB8GFgC2SJ7v7BaEAu4f-3" value="TFR.xlsx" style="shape=note;whiteSpace=wrap;html=1;backgroundOutline=1;darkOpacity=0.05;size=23;fillColor=#6d8764;fontColor=#ffffff;strokeColor=#3A5431;" vertex="1" parent="wfU0l5_XjZCZ8PXjGs2P-1">
          <mxGeometry x="500" y="360" width="80" height="50" as="geometry" />
        </mxCell>
        <mxCell id="TB8GFgC2SJ7v7BaEAu4f-7" value="Review Sheet.xlsx" style="shape=note;whiteSpace=wrap;html=1;backgroundOutline=1;darkOpacity=0.05;fillColor=#6d8764;fontColor=#ffffff;strokeColor=#3A5431;" vertex="1" parent="wfU0l5_XjZCZ8PXjGs2P-1">
          <mxGeometry x="490" y="940" width="70" height="80" as="geometry" />
        </mxCell>
      </root>
    </mxGraphModel>
  </diagram>
  <diagram id="BSwH1KIJxS3W0yD50pr3" name="TransactionItem">
    <mxGraphModel dx="1434" dy="782" grid="1" gridSize="10" guides="1" tooltips="1" connect="1" arrows="1" fold="1" page="1" pageScale="1" pageWidth="850" pageHeight="1100" math="0" shadow="0">
      <root>
        <mxCell id="0" />
        <mxCell id="1" parent="0" />
        <mxCell id="5YC6JdZa6jmE8O83hKVx-10" style="edgeStyle=orthogonalEdgeStyle;rounded=0;orthogonalLoop=1;jettySize=auto;html=1;" parent="1" source="5YC6JdZa6jmE8O83hKVx-3" target="5YC6JdZa6jmE8O83hKVx-9" edge="1">
          <mxGeometry relative="1" as="geometry" />
        </mxCell>
        <mxCell id="5YC6JdZa6jmE8O83hKVx-3" value="User" style="rounded=0;whiteSpace=wrap;html=1;fillColor=#0050ef;fontColor=#ffffff;strokeColor=#001DBC;" parent="1" vertex="1">
          <mxGeometry x="300" y="160" width="190" height="30" as="geometry" />
        </mxCell>
        <mxCell id="5YC6JdZa6jmE8O83hKVx-14" style="edgeStyle=orthogonalEdgeStyle;rounded=0;orthogonalLoop=1;jettySize=auto;html=1;" parent="1" source="5YC6JdZa6jmE8O83hKVx-4" target="5YC6JdZa6jmE8O83hKVx-3" edge="1">
          <mxGeometry relative="1" as="geometry" />
        </mxCell>
        <mxCell id="5YC6JdZa6jmE8O83hKVx-4" value="&lt;div&gt;CitrixCredential&lt;/div&gt;&lt;div&gt;CitrixEnvironment&lt;/div&gt;&lt;div&gt;TaxsolverCredential&lt;/div&gt;&lt;div&gt;Mail (Input)&lt;br&gt;&lt;/div&gt;&lt;div&gt;CustomerName (Input)&lt;/div&gt;&lt;div&gt;FolderPath (Input)&lt;br&gt;&lt;/div&gt;" style="shape=internalStorage;whiteSpace=wrap;html=1;backgroundOutline=1;fillColor=#647687;strokeColor=#314354;fontColor=#ffffff;" parent="1" vertex="1">
          <mxGeometry x="600" y="87.5" width="180" height="175" as="geometry" />
        </mxCell>
        <mxCell id="5YC6JdZa6jmE8O83hKVx-18" style="edgeStyle=orthogonalEdgeStyle;rounded=0;orthogonalLoop=1;jettySize=auto;html=1;entryX=0.5;entryY=0;entryDx=0;entryDy=0;" parent="1" source="5YC6JdZa6jmE8O83hKVx-8" target="5YC6JdZa6jmE8O83hKVx-17" edge="1">
          <mxGeometry relative="1" as="geometry" />
        </mxCell>
        <mxCell id="5YC6JdZa6jmE8O83hKVx-8" value="Return Item" style="rounded=0;whiteSpace=wrap;html=1;fillColor=#0050ef;fontColor=#ffffff;strokeColor=#001DBC;" parent="1" vertex="1">
          <mxGeometry x="300" y="355" width="190" height="30" as="geometry" />
        </mxCell>
        <mxCell id="5YC6JdZa6jmE8O83hKVx-11" style="edgeStyle=orthogonalEdgeStyle;rounded=0;orthogonalLoop=1;jettySize=auto;html=1;entryX=0.5;entryY=0;entryDx=0;entryDy=0;" parent="1" source="5YC6JdZa6jmE8O83hKVx-9" target="5YC6JdZa6jmE8O83hKVx-8" edge="1">
          <mxGeometry relative="1" as="geometry" />
        </mxCell>
        <mxCell id="5YC6JdZa6jmE8O83hKVx-9" value="Date range (Returns List)" style="rounded=0;whiteSpace=wrap;html=1;fillColor=#0050ef;fontColor=#ffffff;strokeColor=#001DBC;" parent="1" vertex="1">
          <mxGeometry x="300" y="245" width="190" height="30" as="geometry" />
        </mxCell>
        <mxCell id="5YC6JdZa6jmE8O83hKVx-13" style="edgeStyle=orthogonalEdgeStyle;rounded=0;orthogonalLoop=1;jettySize=auto;html=1;" parent="1" source="5YC6JdZa6jmE8O83hKVx-12" target="5YC6JdZa6jmE8O83hKVx-9" edge="1">
          <mxGeometry relative="1" as="geometry" />
        </mxCell>
        <mxCell id="5YC6JdZa6jmE8O83hKVx-12" value="&lt;div&gt;Month&lt;/div&gt;&lt;div&gt;Year&lt;br&gt;&lt;/div&gt;" style="shape=internalStorage;whiteSpace=wrap;html=1;backgroundOutline=1;fillColor=#647687;fontColor=#ffffff;strokeColor=#314354;" parent="1" vertex="1">
          <mxGeometry x="90" y="220" width="80" height="80" as="geometry" />
        </mxCell>
        <mxCell id="5YC6JdZa6jmE8O83hKVx-16" style="edgeStyle=orthogonalEdgeStyle;rounded=0;orthogonalLoop=1;jettySize=auto;html=1;" parent="1" source="5YC6JdZa6jmE8O83hKVx-15" target="5YC6JdZa6jmE8O83hKVx-8" edge="1">
          <mxGeometry relative="1" as="geometry" />
        </mxCell>
        <mxCell id="5YC6JdZa6jmE8O83hKVx-15" value="&lt;div&gt;CustomerName&lt;/div&gt;&lt;div&gt;ReturnName&lt;/div&gt;&lt;div&gt;AmountDue&lt;/div&gt;&lt;div&gt;DueDate&lt;/div&gt;&lt;div&gt;ImportedData&lt;/div&gt;&lt;div&gt;Workflow&lt;/div&gt;&lt;div&gt;LegalEntity&lt;/div&gt;&lt;div&gt;State&lt;br&gt;&lt;/div&gt;" style="shape=internalStorage;whiteSpace=wrap;html=1;backgroundOutline=1;fillColor=#647687;fontColor=#ffffff;strokeColor=#314354;" parent="1" vertex="1">
          <mxGeometry x="600" y="290" width="180" height="160" as="geometry" />
        </mxCell>
        <mxCell id="5YC6JdZa6jmE8O83hKVx-20" style="edgeStyle=orthogonalEdgeStyle;rounded=0;orthogonalLoop=1;jettySize=auto;html=1;" parent="1" source="5YC6JdZa6jmE8O83hKVx-17" target="5YC6JdZa6jmE8O83hKVx-19" edge="1">
          <mxGeometry relative="1" as="geometry" />
        </mxCell>
        <mxCell id="5YC6JdZa6jmE8O83hKVx-17" value="TransactionItem ID" style="shape=hexagon;perimeter=hexagonPerimeter2;whiteSpace=wrap;html=1;fixedSize=1;" parent="1" vertex="1">
          <mxGeometry x="335" y="470" width="120" height="80" as="geometry" />
        </mxCell>
        <mxCell id="5YC6JdZa6jmE8O83hKVx-19" value="Month + Year + Customer Name + Return Name" style="rounded=0;whiteSpace=wrap;html=1;fillColor=#1ba1e2;fontColor=#ffffff;strokeColor=#006EAF;" parent="1" vertex="1">
          <mxGeometry x="90" y="600" width="610" height="60" as="geometry" />
        </mxCell>
        <mxCell id="5YC6JdZa6jmE8O83hKVx-21" value="&lt;div align=&quot;left&quot;&gt;If the return item was processed before, the bot should skip it.&lt;/div&gt;&lt;div&gt;- Failed return items should be processed again&lt;/div&gt;&lt;div&gt;- To get both Month and Year, the user needs to input it in the Assistant&lt;br&gt;&lt;/div&gt;" style="rounded=0;whiteSpace=wrap;html=1;align=left;" parent="1" vertex="1">
          <mxGeometry x="90" y="690" width="510" height="80" as="geometry" />
        </mxCell>
      </root>
    </mxGraphModel>
  </diagram>
  <diagram id="fbhUqywq4jf6TKPP72do" name="User actions">
    <mxGraphModel dx="1434" dy="782" grid="1" gridSize="10" guides="1" tooltips="1" connect="1" arrows="1" fold="1" page="1" pageScale="1" pageWidth="850" pageHeight="1100" math="0" shadow="0">
      <root>
        <mxCell id="0" />
        <mxCell id="1" parent="0" />
        <mxCell id="dn9tFwMrXH9i6sTKMQ0o-23" style="edgeStyle=orthogonalEdgeStyle;rounded=0;orthogonalLoop=1;jettySize=auto;html=1;entryX=0;entryY=0.5;entryDx=0;entryDy=0;" parent="1" source="dn9tFwMrXH9i6sTKMQ0o-1" target="dn9tFwMrXH9i6sTKMQ0o-18" edge="1">
          <mxGeometry relative="1" as="geometry" />
        </mxCell>
        <mxCell id="dn9tFwMrXH9i6sTKMQ0o-24" style="edgeStyle=orthogonalEdgeStyle;rounded=0;orthogonalLoop=1;jettySize=auto;html=1;entryX=0;entryY=0.5;entryDx=0;entryDy=0;" parent="1" source="dn9tFwMrXH9i6sTKMQ0o-1" target="dn9tFwMrXH9i6sTKMQ0o-11" edge="1">
          <mxGeometry relative="1" as="geometry" />
        </mxCell>
        <mxCell id="dn9tFwMrXH9i6sTKMQ0o-26" style="edgeStyle=orthogonalEdgeStyle;rounded=0;orthogonalLoop=1;jettySize=auto;html=1;entryX=0;entryY=0.5;entryDx=0;entryDy=0;" parent="1" source="dn9tFwMrXH9i6sTKMQ0o-1" target="dn9tFwMrXH9i6sTKMQ0o-6" edge="1">
          <mxGeometry relative="1" as="geometry">
            <Array as="points">
              <mxPoint x="150" y="290" />
              <mxPoint x="150" y="445" />
            </Array>
          </mxGeometry>
        </mxCell>
        <mxCell id="dn9tFwMrXH9i6sTKMQ0o-1" value="User" style="shape=umlActor;verticalLabelPosition=bottom;verticalAlign=top;html=1;outlineConnect=0;" parent="1" vertex="1">
          <mxGeometry x="70" y="260" width="30" height="60" as="geometry" />
        </mxCell>
        <mxCell id="dn9tFwMrXH9i6sTKMQ0o-5" value="TaxSolver" style="swimlane;fontStyle=0;childLayout=stackLayout;horizontal=1;startSize=30;horizontalStack=0;resizeParent=1;resizeParentMax=0;resizeLast=0;collapsible=1;marginBottom=0;whiteSpace=wrap;html=1;" parent="1" vertex="1">
          <mxGeometry x="240" y="400" width="140" height="60" as="geometry" />
        </mxCell>
        <mxCell id="dn9tFwMrXH9i6sTKMQ0o-6" value="Apply Filters" style="text;strokeColor=none;fillColor=none;align=left;verticalAlign=middle;spacingLeft=4;spacingRight=4;overflow=hidden;points=[[0,0.5],[1,0.5]];portConstraint=eastwest;rotatable=0;whiteSpace=wrap;html=1;" parent="dn9tFwMrXH9i6sTKMQ0o-5" vertex="1">
          <mxGeometry y="30" width="140" height="30" as="geometry" />
        </mxCell>
        <mxCell id="dn9tFwMrXH9i6sTKMQ0o-9" value="UiPath Assistant" style="swimlane;fontStyle=0;childLayout=stackLayout;horizontal=1;startSize=30;horizontalStack=0;resizeParent=1;resizeParentMax=0;resizeLast=0;collapsible=1;marginBottom=0;whiteSpace=wrap;html=1;" parent="1" vertex="1">
          <mxGeometry x="240" y="215" width="140" height="150" as="geometry" />
        </mxCell>
        <mxCell id="dn9tFwMrXH9i6sTKMQ0o-10" value="Email" style="text;strokeColor=none;fillColor=none;align=left;verticalAlign=middle;spacingLeft=4;spacingRight=4;overflow=hidden;points=[[0,0.5],[1,0.5]];portConstraint=eastwest;rotatable=0;whiteSpace=wrap;html=1;" parent="dn9tFwMrXH9i6sTKMQ0o-9" vertex="1">
          <mxGeometry y="30" width="140" height="30" as="geometry" />
        </mxCell>
        <mxCell id="dn9tFwMrXH9i6sTKMQ0o-11" value="Account Name" style="text;strokeColor=none;fillColor=none;align=left;verticalAlign=middle;spacingLeft=4;spacingRight=4;overflow=hidden;points=[[0,0.5],[1,0.5]];portConstraint=eastwest;rotatable=0;whiteSpace=wrap;html=1;" parent="dn9tFwMrXH9i6sTKMQ0o-9" vertex="1">
          <mxGeometry y="60" width="140" height="30" as="geometry" />
        </mxCell>
        <mxCell id="dn9tFwMrXH9i6sTKMQ0o-12" value="Path TFR File" style="text;strokeColor=none;fillColor=none;align=left;verticalAlign=middle;spacingLeft=4;spacingRight=4;overflow=hidden;points=[[0,0.5],[1,0.5]];portConstraint=eastwest;rotatable=0;whiteSpace=wrap;html=1;" parent="dn9tFwMrXH9i6sTKMQ0o-9" vertex="1">
          <mxGeometry y="90" width="140" height="30" as="geometry" />
        </mxCell>
        <mxCell id="dn9tFwMrXH9i6sTKMQ0o-21" value="Path Review Sheet" style="text;strokeColor=none;fillColor=none;align=left;verticalAlign=middle;spacingLeft=4;spacingRight=4;overflow=hidden;points=[[0,0.5],[1,0.5]];portConstraint=eastwest;rotatable=0;whiteSpace=wrap;html=1;" parent="dn9tFwMrXH9i6sTKMQ0o-9" vertex="1">
          <mxGeometry y="120" width="140" height="30" as="geometry" />
        </mxCell>
        <mxCell id="dn9tFwMrXH9i6sTKMQ0o-17" value="Preparations" style="swimlane;fontStyle=0;childLayout=stackLayout;horizontal=1;startSize=30;horizontalStack=0;resizeParent=1;resizeParentMax=0;resizeLast=0;collapsible=1;marginBottom=0;whiteSpace=wrap;html=1;" parent="1" vertex="1">
          <mxGeometry x="240" y="30" width="200" height="120" as="geometry" />
        </mxCell>
        <mxCell id="dn9tFwMrXH9i6sTKMQ0o-18" value="Prepare TFR and Review Sheet" style="text;strokeColor=none;fillColor=none;align=left;verticalAlign=middle;spacingLeft=4;spacingRight=4;overflow=hidden;points=[[0,0.5],[1,0.5]];portConstraint=eastwest;rotatable=0;whiteSpace=wrap;html=1;" parent="dn9tFwMrXH9i6sTKMQ0o-17" vertex="1">
          <mxGeometry y="30" width="200" height="30" as="geometry" />
        </mxCell>
        <mxCell id="dn9tFwMrXH9i6sTKMQ0o-19" value="Set / Check Citrix Credentials" style="text;strokeColor=none;fillColor=none;align=left;verticalAlign=middle;spacingLeft=4;spacingRight=4;overflow=hidden;points=[[0,0.5],[1,0.5]];portConstraint=eastwest;rotatable=0;whiteSpace=wrap;html=1;" parent="dn9tFwMrXH9i6sTKMQ0o-17" vertex="1">
          <mxGeometry y="60" width="200" height="30" as="geometry" />
        </mxCell>
        <mxCell id="dn9tFwMrXH9i6sTKMQ0o-20" value="Set / Check TaxSolver Credentials" style="text;strokeColor=none;fillColor=none;align=left;verticalAlign=middle;spacingLeft=4;spacingRight=4;overflow=hidden;points=[[0,0.5],[1,0.5]];portConstraint=eastwest;rotatable=0;whiteSpace=wrap;html=1;" parent="dn9tFwMrXH9i6sTKMQ0o-17" vertex="1">
          <mxGeometry y="90" width="200" height="30" as="geometry" />
        </mxCell>
      </root>
    </mxGraphModel>
  </diagram>
  <diagram id="A3UowgGfkoyQ82jMkQWg" name="Planning">
    <mxGraphModel dx="1434" dy="782" grid="1" gridSize="10" guides="1" tooltips="1" connect="1" arrows="1" fold="1" page="1" pageScale="1" pageWidth="850" pageHeight="1100" math="0" shadow="0">
      <root>
        <mxCell id="0" />
        <mxCell id="1" parent="0" />
        <mxCell id="6IuRWV8Wr6L4MWvjGKq4-4" style="edgeStyle=orthogonalEdgeStyle;rounded=0;orthogonalLoop=1;jettySize=auto;html=1;entryX=0.5;entryY=0;entryDx=0;entryDy=0;" edge="1" parent="1" source="_R2HVAsTq27m5JYy57BA-1" target="_R2HVAsTq27m5JYy57BA-2">
          <mxGeometry relative="1" as="geometry" />
        </mxCell>
        <mxCell id="_R2HVAsTq27m5JYy57BA-1" value="1st version" style="rounded=1;whiteSpace=wrap;html=1;" parent="1" vertex="1">
          <mxGeometry x="90" y="110" width="120" height="60" as="geometry" />
        </mxCell>
        <mxCell id="_R2HVAsTq27m5JYy57BA-2" value="2nd version" style="rounded=1;whiteSpace=wrap;html=1;" parent="1" vertex="1">
          <mxGeometry x="90" y="210" width="120" height="60" as="geometry" />
        </mxCell>
        <mxCell id="rPvI_cYs1B95m4i0kE8h-2" style="edgeStyle=orthogonalEdgeStyle;rounded=0;orthogonalLoop=1;jettySize=auto;html=1;entryX=1;entryY=0.5;entryDx=0;entryDy=0;" parent="1" source="rPvI_cYs1B95m4i0kE8h-1" target="_R2HVAsTq27m5JYy57BA-2" edge="1">
          <mxGeometry relative="1" as="geometry" />
        </mxCell>
        <mxCell id="rPvI_cYs1B95m4i0kE8h-1" value="The bot can apply filters in Returns page" style="rounded=0;whiteSpace=wrap;html=1;" parent="1" vertex="1">
          <mxGeometry x="340" y="210" width="120" height="60" as="geometry" />
        </mxCell>
        <mxCell id="6IuRWV8Wr6L4MWvjGKq4-1" value="3hd version" style="rounded=1;whiteSpace=wrap;html=1;" vertex="1" parent="1">
          <mxGeometry x="90" y="300" width="120" height="60" as="geometry" />
        </mxCell>
        <mxCell id="6IuRWV8Wr6L4MWvjGKq4-3" style="edgeStyle=orthogonalEdgeStyle;rounded=0;orthogonalLoop=1;jettySize=auto;html=1;" edge="1" parent="1" source="6IuRWV8Wr6L4MWvjGKq4-2" target="6IuRWV8Wr6L4MWvjGKq4-1">
          <mxGeometry relative="1" as="geometry" />
        </mxCell>
        <mxCell id="6IuRWV8Wr6L4MWvjGKq4-2" value="The bot can login and prepare the Review Sheet" style="rounded=0;whiteSpace=wrap;html=1;" vertex="1" parent="1">
          <mxGeometry x="340" y="300" width="120" height="60" as="geometry" />
        </mxCell>
        <mxCell id="6IuRWV8Wr6L4MWvjGKq4-6" style="edgeStyle=orthogonalEdgeStyle;rounded=0;orthogonalLoop=1;jettySize=auto;html=1;" edge="1" parent="1" source="6IuRWV8Wr6L4MWvjGKq4-5" target="_R2HVAsTq27m5JYy57BA-1">
          <mxGeometry relative="1" as="geometry" />
        </mxCell>
        <mxCell id="6IuRWV8Wr6L4MWvjGKq4-5" value="The bot can apply filters in Returns page" style="rounded=0;whiteSpace=wrap;html=1;" vertex="1" parent="1">
          <mxGeometry x="340" y="110" width="120" height="60" as="geometry" />
        </mxCell>
      </root>
    </mxGraphModel>
  </diagram>
</mxfile>
